<svg xmlns="http://www.w3.org/2000/svg" viewBox="0 0 433.06 65.34"><title>logo</title><g id="Layer_2" data-name="Layer 2"><g id="Layer_1-2" data-name="Layer 1"><path d="M145.49,12.66h3.84l8.28,23.22,3.12,8.76H161L164,35.88l8.22-23.22h3.9V52.2h-2.7v-26c0-3.24.18-7.38.36-10.68h-.24l-3.06,8.7L162,47.88h-2.4l-8.52-23.64-3.12-8.7h-.24c.12,3.3.3,7.44.3,10.68v26h-2.52Z"/><path d="M186.29,14.1a2.4,2.4,0,1,1,2.4,2.34A2.3,2.3,0,0,1,186.29,14.1Zm1,9.3h2.64V52.2H187.3Z"/><path d="M211.78,22.68a11.81,11.81,0,0,1,8.46,3.54l-1.56,1.86A9.82,9.82,0,0,0,211.84,25C206,25,201.4,30.24,201.4,37.86s4.14,12.72,10.44,12.72a11.58,11.58,0,0,0,7.68-3.3l1.38,1.8a13.61,13.61,0,0,1-9.18,3.84c-7.44,0-13.08-5.52-13.08-15.06S204.76,22.68,211.78,22.68Z"/><path d="M228,9.06h2.64v31.8h.12L245,23.4H248l-9.36,11.4,10.92,17.4h-2.94L237.1,36.78l-6.48,7.56V52.2H228Z"/><path d="M254.68,62.88c3.54,0,5.94-3.24,7.38-7.62l.78-2.52L251,23.4h2.88l7,18.12c.9,2.4,2,5.52,3.12,8h.24c.9-2.52,1.86-5.64,2.64-8L273,23.4h2.7l-11.4,32.4c-1.62,4.8-4.5,9.54-9.66,9.54a7.33,7.33,0,0,1-2.94-.6l.6-2.34A6.75,6.75,0,0,0,254.68,62.88Z"/><path d="M289.3,18.84H278V13h29.58v5.88H296.26V52.2h-7Z"/><path d="M310.78,22.74h5.7L317,28h.24c2.1-3.84,5.22-5.94,8.34-5.94a7.48,7.48,0,0,1,3.36.6l-1.2,6a9.63,9.63,0,0,0-3.06-.48c-2.34,0-5.16,1.62-7,6.06v18h-6.9Z"/><path d="M347.62,33.36c-.06-3.12-1.38-5.76-5.34-5.76-2.94,0-5.7,1.32-8.28,2.88l-2.52-4.62A22.83,22.83,0,0,1,343.54,22c7.38,0,11,4.5,11,12.72V52.2h-5.64L348.34,49h-.18c-2.64,2.22-5.64,4-9.12,4-5.16,0-8.76-3.48-8.76-8.64C330.28,38,335.56,34.68,347.62,33.36ZM341.2,47.52c2.4,0,4.26-1.2,6.42-3.24v-6.6c-8,1-10.62,3.12-10.62,6.06C337,46.38,338.74,47.52,341.2,47.52Z"/><path d="M359.26,22.74h7L371,38c.78,2.88,1.68,5.88,2.46,8.88h.24c.84-3,1.68-6,2.52-8.88l4.68-15.3h6.66l-10,29.46h-8Z"/><path d="M403.9,22c8,0,12.18,5.76,12.18,14a14.77,14.77,0,0,1-.3,3.24H397.06c.6,5.34,4,8.34,8.7,8.34a12.31,12.31,0,0,0,6.84-2.16l2.34,4.32a18.59,18.59,0,0,1-10.08,3.18c-8.16,0-14.52-5.7-14.52-15.42S397,22,403.9,22Zm6.18,12.84c0-4.68-2-7.5-6-7.5-3.48,0-6.48,2.58-7.08,7.5Z"/><path d="M422.68,9.84h6.9V45c0,1.68.78,2.28,1.5,2.28a4.13,4.13,0,0,0,1.08-.12l.9,5.16a9.43,9.43,0,0,1-3.66.6c-4.92,0-6.72-3.18-6.72-8.28Z"/><path d="M96.21,28.49c0,1.26-7.92,3.92-9.17,3-6.09-4.87-5-7.92-10.4-5.61,1.07,1.26,2.51,2.52,1.61,3.24s-1.79-1.08-3-2.71l-1.8.71c1.07,1.44,2.51,2.7,1.6,3.42s-1.79-1.08-3-2.71l-1.8.71c1.07,1.44,2.33,2.52,1.43,3.24s-1.79-1.08-3-2.53L66.92,30c1.07,1.44,2.51,2.52,1.61,3.24-.9.9-2-1.09-3.22-2.53-3.24,1.25-8.64,3.74-11.87,4.45-2.52.71-4.13.34-5.93,1.24-4,2.14-1.65,9.16-.4,10.06,2,1.27,11.13,2.92,14.9,3.11,6.65.2,36.47.49,36.65.5,2.16,0,1.45-3.23,1.64-6.46,1.26-.53,0-12.94.05-14.55a2.77,2.77,0,0,0-1.61-2.34C96.22,25.8,96.22,27.24,96.21,28.49ZM65.61,45.81l33.6-1.49c-.19,2,.16,4.67-.56,4.67-1.44,0-30.18-.47-36.65-.5-2.34-.19-4.85-.56-7.18-.93-7.36-1.46-7.36-1.64-8.25-4.52a15.56,15.56,0,0,0,1.8.37C52.67,45.76,59.32,45.78,65.61,45.81Z"/><path d="M28.63,50.12c-2.13-1.6-5.14-2.15-8.09,1.67l-4-3c2.84-3.9,1.47-6.64-.6-8.19C12.27,37.85,9,36.2,5,33.22c-6-4.54-6.26-8.21-2.67-13l2.38-3.17,3.69,2.77-1,1.38c-2,2.71-1.5,4.28,2,6.87,3.22,2.42,6.67,4.55,10.12,7.15,4.09,3.07,5,5.52,3.61,8.74l.23.17c2.72-2.19,5.37-2,9.4,1,3.69,2.77,6.41,5.26,9.69,7.72,3.46,2.59,5.17,2.71,7.2,0l1-1.38,3.63,2.72L51.88,57.4C48.3,62.18,44.77,63,38.66,58.46,34.52,55.35,32.37,52.93,28.63,50.12Z" style="fill:#20bf55"/><path d="M107,57.39c3.46,0,4.39-1.44,4.39-5.76,0-4.1-.36-7.78-.36-12.38,0-5,1.44-7.27,4.82-8.14v-.29c-3.38-.86-4.82-3-4.82-8.14,0-4.32.36-8.35.36-12.39,0-4.32-.94-5.69-4.39-5.69h-1.66V0h3.89c6,0,8.86,2.38,8.86,9.94,0,5-.65,8.57-.65,13.1,0,2.59,1.37,5.33,6.19,5.4v5c-4.82.07-6.19,2.81-6.19,5.47,0,4.68.65,7.85.65,13,0,7.63-2.81,9.94-8.86,9.94h-3.89V57.39Z" style="fill:#20bf55"/><path d="M61.93,16c-.41,1.19-8.77,1.13-9.66-.13-4.17-6.59-2.15-9.12-8-8.69.6,1.54,1.55,3.2.46,3.59s-1.34-1.61-2-3.55l-1.93.09c.55,1.71,1.49,3.37.4,3.76s-1.34-1.61-2-3.55l-1.93.09c.55,1.71,1.38,3.14.29,3.53S36.22,9.47,35.51,7.7l-1.76.15c.55,1.71,1.55,3.2.46,3.59C33.06,12,32.7,9.76,32,8c-3.47.12-9.39.73-12.68.34-2.61-.15-4-1-6-.76C8.85,8.31,8.75,15.69,9.64,17c1.45,1.84,9.57,6.38,13.08,7.79C28.94,27.1,57,37.08,57.22,37.14c2,.71,2.42-2.58,3.65-5.58,1.37-.1,4.25-12.22,4.79-13.74a2.77,2.77,0,0,0-.76-2.74C62.82,13.4,62.35,14.76,61.93,16ZM27.36,22.36l32.26,9.52c-.82,1.81-1.37,4.47-2,4.23-1.36-.47-28.39-10.27-34.5-12.39-2.15-.94-4.4-2.1-6.49-3.21-6.48-3.78-6.42-3.95-6.33-7a15.56,15.56,0,0,0,1.58.93C15.14,18.11,21.42,20.3,27.36,22.36Z"/></g></g></svg>